<?xml version="1.0" standalone="no"?>
<!DOCTYPE svg PUBLIC "-//W3C//DTD SVG 20010904//EN"
 "http://www.w3.org/TR/2001/REC-SVG-20010904/DTD/svg10.dtd">
<svg version="1.0" xmlns="http://www.w3.org/2000/svg"
 width="256.000000pt" height="256.000000pt" viewBox="0 0 256.000000 256.000000"
 preserveAspectRatio="xMidYMid meet">
<metadata>
Created by potrace 1.11, written by Peter Selinger 2001-2013
</metadata>
<g transform="translate(0.000000,256.000000) scale(0.100000,-0.100000)"
fill="#000000" stroke="none">
<path d="M1080 2543 c-258 -39 -494 -159 -692 -351 -445 -432 -514 -1111 -165
-1632 64 -96 241 -273 337 -337 439 -294 989 -296 1435 -5 92 60 279 247 342
342 295 443 295 1002 0 1440 -71 104 -223 259 -326 329 -278 190 -603 265
-931 214z m1039 -706 c22 -15 50 -45 61 -67 25 -49 26 -132 2 -177 -27 -49
-912 -962 -954 -984 -44 -22 -115 -25 -161 -5 -36 16 -560 466 -591 509 -14
18 -21 47 -24 90 -4 73 15 115 72 161 45 36 131 47 186 23 19 -8 122 -89 228
-181 l193 -167 168 173 c92 95 263 273 381 396 129 134 231 230 255 243 55 28
129 22 184 -14z"/>
</g>
</svg>
